<svg viewBox="0 0 218 217" fill="none" xmlns="http://www.w3.org/2000/svg">
<circle opacity="0.1" cx="109" cy="108.5" r="108.5" fill="#212353"/>
<path d="M108.511 83.3613C93.8973 83.3613 82.1095 94.8083 82.1095 109C82.1095 123.192 93.8973 134.639 108.511 134.639C123.126 134.639 134.914 123.192 134.914 109C134.914 94.8083 123.126 83.3613 108.511 83.3613ZM108.511 125.669C99.0674 125.669 91.3467 118.193 91.3467 109C91.3467 99.8067 99.0445 92.3315 108.511 92.3315C117.979 92.3315 125.676 99.8067 125.676 109C125.676 118.193 117.956 125.669 108.511 125.669V125.669ZM142.152 82.3125C142.152 85.6373 139.394 88.2927 135.993 88.2927C132.57 88.2927 129.835 85.615 129.835 82.3125C129.835 79.01 132.593 76.3324 135.993 76.3324C139.394 76.3324 142.152 79.01 142.152 82.3125ZM159.638 88.3819C159.247 80.3712 157.363 73.2754 151.32 67.4291C145.3 61.5828 137.993 59.7531 129.743 59.3514C121.241 58.8829 95.7586 58.8829 87.2566 59.3514C79.0304 59.7308 71.7233 61.5605 65.68 67.4068C59.6368 73.253 57.7755 80.3489 57.3619 88.3596C56.8794 96.6158 56.8794 121.362 57.3619 129.618C57.7525 137.629 59.6368 144.725 65.68 150.571C71.7233 156.417 79.0074 158.247 87.2566 158.649C95.7586 159.117 121.241 159.117 129.743 158.649C137.993 158.269 145.3 156.439 151.32 150.571C157.34 144.725 159.224 137.629 159.638 129.618C160.121 121.362 160.121 96.6381 159.638 88.3819V88.3819ZM148.654 138.477C146.862 142.85 143.392 146.22 138.866 147.982C132.087 150.593 116.002 149.991 108.511 149.991C101.021 149.991 84.9128 150.571 78.1572 147.982C73.6535 146.242 70.1838 142.873 68.3685 138.477C65.68 131.894 66.3004 116.274 66.3004 109C66.3004 101.726 65.703 86.0836 68.3685 79.5233C70.1608 75.1497 73.6305 71.7803 78.1572 70.0175C84.9358 67.4068 101.021 68.0093 108.511 68.0093C116.002 68.0093 132.11 67.4291 138.866 70.0175C143.369 71.758 146.839 75.1274 148.654 79.5233C151.343 86.1059 150.723 101.726 150.723 109C150.723 116.274 151.343 131.916 148.654 138.477Z" fill="white"/>
</svg>
