<svg viewBox="0 0 202 202" fill="none" xmlns="http://www.w3.org/2000/svg">
<circle opacity="0.1" r="101" transform="matrix(-1 0 0 1 101 101)" fill="#212353"/>
<path fill-rule="evenodd" clip-rule="evenodd" d="M103.115 80.7827L103.404 76.1976C104.269 64.3146 96.6786 53.4606 84.6688 49.2504C80.2494 47.7532 72.7557 47.566 67.8556 48.8761C65.9343 49.4376 62.283 51.3086 59.6893 52.993L54.9815 56.0808L49.7936 54.4902C46.9109 53.6478 43.0678 52.2444 41.3389 51.3086C39.7055 50.4667 38.2645 49.9985 38.2645 50.2795C38.2645 51.8701 41.8191 57.297 44.7974 60.291C48.8327 64.5017 47.6795 64.876 39.5132 62.0687C34.6132 60.4781 34.5176 60.4781 35.4779 62.2559C36.0548 63.1916 39.0331 66.4666 42.2037 69.4605C47.5839 74.6071 47.8718 75.1685 47.8718 79.4726C47.8718 86.1158 51.1385 99.9637 54.4052 107.543C60.4579 121.765 73.4281 136.455 86.3983 143.847C104.653 154.233 128.96 156.853 149.424 150.771C156.245 148.712 167.967 143.472 167.967 142.537C167.967 142.256 164.412 141.882 160.088 141.788C151.057 141.601 142.026 139.168 134.34 134.864L129.152 131.87L135.109 129.905C143.564 127.098 151.154 120.642 153.075 114.56C153.652 112.595 153.459 112.502 148.079 112.502L142.507 112.408L147.214 110.256C152.787 107.543 157.879 102.958 160.377 98.2793C162.203 94.911 164.508 86.3963 163.835 85.7415C163.644 85.461 161.626 86.0219 159.32 86.7706C152.691 89.1097 151.826 88.5483 155.669 84.6186C162.875 77.5077 165.085 66.9342 161.626 56.9227L159.992 52.4315L153.652 58.5133C140.681 70.7706 125.405 78.0692 107.919 80.2212L103.115 80.7827Z" fill="white"/>
</svg>
